{
	"asset":{
		"generator":"Khronos glTF Blender I/O v3.6.27",
		"version":"2.0"
	},
	"scene":0,
	"scenes":[
		{
			"name":"Scene",
			"nodes":[
				0
			]
		}
	],
	"nodes":[
		{
			"mesh":0,
			"name":"Ball_Low"
		}
	],
	"meshes":[
		{
			"name":"Roundcube.003",
			"primitives":[
				{
					"attributes":{
						"POSITION":0,
						"NORMAL":1,
						"TEXCOORD_0":2
					},
					"indices":3
				}
			]
		}
	],
	"accessors":[
		{
			"bufferView":0,
			"componentType":5126,
			"count":1734,
			"max":[
				1,
				0.9999999403953552,
				1
			],
			"min":[
				-1,
				-0.9999999403953552,
				-1
			],
			"type":"VEC3"
		},
		{
			"bufferView":1,
			"componentType":5126,
			"count":1734,
			"type":"VEC3"
		},
		{
			"bufferView":2,
			"componentType":5126,
			"count":1734,
			"type":"VEC2"
		},
		{
			"bufferView":3,
			"componentType":5123,
			"count":9216,
			"type":"SCALAR"
		}
	],
	"bufferViews":[
		{
			"buffer":0,
			"byteLength":20808,
			"byteOffset":0,
			"target":34962
		},
		{
			"buffer":0,
			"byteLength":20808,
			"byteOffset":20808,
			"target":34962
		},
		{
			"buffer":0,
			"byteLength":13872,
			"byteOffset":41616,
			"target":34962
		},
		{
			"buffer":0,
			"byteLength":18432,
			"byteOffset":55488,
			"target":34963
		}
	],
	"buffers":[
		{
			"byteLength":73920,
			"uri":"data:application/octet-stream;base64,"
		}
	]
}
