{
	"asset":{
		"generator":"Khronos glTF Blender I/O v3.6.27",
		"version":"2.0"
	},
	"scene":0,
	"scenes":[
		{
			"name":"Scene",
			"nodes":[
				0
			]
		}
	],
	"nodes":[
		{
			"mesh":0,
			"name":"Ball_Low"
		}
	],
	"animations":[
		{
			"channels":[
				{
					"sampler":0,
					"target":{
						"node":0,
						"path":"rotation"
					}
				}
			],
			"name":"Ball_LowAction.001",
			"samplers":[
				{
					"input":4,
					"interpolation":"LINEAR",
					"output":5
				}
			]
		}
	],
	"materials":[
		{
			"doubleSided":true,
			"emissiveFactor":[
				1,
				1,
				1
			],
			"emissiveTexture":{
				"index":0
			},
			"name":"Ball_Low_Material",
			"normalTexture":{
				"index":1
			},
			"pbrMetallicRoughness":{
				"baseColorTexture":{
					"index":2
				},
				"metallicFactor":0,
				"roughnessFactor":0.5
			}
		}
	],
	"meshes":[
		{
			"name":"Roundcube.003",
			"primitives":[
				{
					"attributes":{
						"POSITION":0,
						"NORMAL":1,
						"TEXCOORD_0":2
					},
					"indices":3,
					"material":0
				}
			]
		}
	],
	"textures":[
		{
			"sampler":0,
			"source":0
		},
		{
			"sampler":0,
			"source":1
		},
		{
			"sampler":0,
			"source":2
		}
	],
	"images":[
		{
			"bufferView":4,
			"mimeType":"image/png",
			"name":"Ball_Emission"
		},
		{
			"bufferView":5,
			"mimeType":"image/png",
			"name":"Ball_Normal"
		},
		{
			"bufferView":6,
			"mimeType":"image/png",
			"name":"Ball_BaseColor"
		}
	],
	"accessors":[
		{
			"bufferView":0,
			"componentType":5126,
			"count":1734,
			"max":[
				1,
				0.9999999403953552,
				1
			],
			"min":[
				-1,
				-0.9999999403953552,
				-1
			],
			"type":"VEC3"
		},
		{
			"bufferView":1,
			"componentType":5126,
			"count":1734,
			"type":"VEC3"
		},
		{
			"bufferView":2,
			"componentType":5126,
			"count":1734,
			"type":"VEC2"
		},
		{
			"bufferView":3,
			"componentType":5123,
			"count":9216,
			"type":"SCALAR"
		},
		{
			"bufferView":7,
			"componentType":5126,
			"count":100,
			"max":[
				1.6666666666666667
			],
			"min":[
				0.016666666666666666
			],
			"type":"SCALAR"
		},
		{
			"bufferView":8,
			"componentType":5126,
			"count":100,
			"type":"VEC4"
		}
	],
	"bufferViews":[
		{
			"buffer":0,
			"byteLength":20808,
			"byteOffset":0,
			"target":34962
		},
		{
			"buffer":0,
			"byteLength":20808,
			"byteOffset":20808,
			"target":34962
		},
		{
			"buffer":0,
			"byteLength":13872,
			"byteOffset":41616,
			"target":34962
		},
		{
			"buffer":0,
			"byteLength":18432,
			"byteOffset":55488,
			"target":34963
		},
		{
			"buffer":0,
			"byteLength":96313,
			"byteOffset":73920
		},
		{
			"buffer":0,
			"byteLength":1748451,
			"byteOffset":170236
		},
		{
			"buffer":0,
			"byteLength":159347,
			"byteOffset":1918688
		},
		{
			"buffer":0,
			"byteLength":400,
			"byteOffset":2078036
		},
		{
			"buffer":0,
			"byteLength":1600,
			"byteOffset":2078436
		}
	],
	"samplers":[
		{
			"magFilter":9729,
			"minFilter":9987
		}
	],
	"buffers":[
		{
			"byteLength":2080036,
			"uri":"data:application/octet-stream;base64,"
		}
	]
}
