{
    "asset" : {
        "generator" : "Khronos glTF Blender I/O v3.2.43",
        "version" : "2.0"
    },
    "scene" : 0,
    "scenes" : [
        {
            "name" : "Scene",
            "nodes" : [
                3,
                4
            ]
        }
    ],
    "nodes" : [
        {
            "mesh" : 0,
            "name" : "Cables",
            "rotation" : [
                0,
                0.38268372416496277,
                0,
                0.9238794445991516
            ]
        },
        {
            "mesh" : 1,
            "name" : "Circle",
            "scale" : [
                0.9977007508277893,
                0.9977007508277893,
                0.9977007508277893
            ]
        },
        {
            "mesh" : 2,
            "name" : "Outer circle"
        },
        {
            "children" : [
                0,
                1,
                2
            ],
            "name" : "Controller"
        },
        {
            "mesh" : 3,
            "name" : "Icosphere",
            "translation" : [
                0,
                1.1846338510513306,
                0
            ]
        }
    ],
    "animations" : [
        {
            "channels" : [
                {
                    "sampler" : 0,
                    "target" : {
                        "node" : 3,
                        "path" : "translation"
                    }
                }
            ],
            "name" : "ControllerAction",
            "samplers" : [
                {
                    "input" : 16,
                    "interpolation" : "LINEAR",
                    "output" : 17
                }
            ]
        },
        {
            "channels" : [
                {
                    "sampler" : 0,
                    "target" : {
                        "node" : 0,
                        "path" : "translation"
                    }
                },
                {
                    "sampler" : 1,
                    "target" : {
                        "node" : 0,
                        "path" : "rotation"
                    }
                },
                {
                    "sampler" : 2,
                    "target" : {
                        "node" : 0,
                        "path" : "scale"
                    }
                }
            ],
            "name" : "Cables",
            "samplers" : [
                {
                    "input" : 18,
                    "interpolation" : "LINEAR",
                    "output" : 19
                },
                {
                    "input" : 18,
                    "interpolation" : "LINEAR",
                    "output" : 20
                },
                {
                    "input" : 18,
                    "interpolation" : "LINEAR",
                    "output" : 21
                }
            ]
        },
        {
            "channels" : [
                {
                    "sampler" : 0,
                    "target" : {
                        "node" : 1,
                        "path" : "rotation"
                    }
                }
            ],
            "name" : "Inner Circle Rotation",
            "samplers" : [
                {
                    "input" : 22,
                    "interpolation" : "LINEAR",
                    "output" : 23
                }
            ]
        },
        {
            "channels" : [
                {
                    "sampler" : 0,
                    "target" : {
                        "node" : 2,
                        "path" : "translation"
                    }
                },
                {
                    "sampler" : 1,
                    "target" : {
                        "node" : 2,
                        "path" : "rotation"
                    }
                },
                {
                    "sampler" : 2,
                    "target" : {
                        "node" : 2,
                        "path" : "scale"
                    }
                }
            ],
            "name" : "Outer circle",
            "samplers" : [
                {
                    "input" : 18,
                    "interpolation" : "LINEAR",
                    "output" : 24
                },
                {
                    "input" : 18,
                    "interpolation" : "LINEAR",
                    "output" : 25
                },
                {
                    "input" : 18,
                    "interpolation" : "LINEAR",
                    "output" : 26
                }
            ]
        },
        {
            "channels" : [
                {
                    "sampler" : 0,
                    "target" : {
                        "node" : 4,
                        "path" : "rotation"
                    }
                }
            ],
            "name" : "IcosphereAction",
            "samplers" : [
                {
                    "input" : 18,
                    "interpolation" : "LINEAR",
                    "output" : 27
                }
            ]
        }
    ],
    "meshes" : [
        {
            "name" : "RCables.030",
            "primitives" : [
                {
                    "attributes" : {
                        "POSITION" : 0,
                        "NORMAL" : 1,
                        "TEXCOORD_0" : 2
                    },
                    "indices" : 3
                }
            ]
        },
        {
            "name" : "Circle.001",
            "primitives" : [
                {
                    "attributes" : {
                        "POSITION" : 4,
                        "NORMAL" : 5,
                        "TEXCOORD_0" : 6
                    },
                    "indices" : 7
                }
            ]
        },
        {
            "name" : "Circle.002",
            "primitives" : [
                {
                    "attributes" : {
                        "POSITION" : 8,
                        "NORMAL" : 9,
                        "TEXCOORD_0" : 10
                    },
                    "indices" : 11
                }
            ]
        },
        {
            "name" : "Icosphere",
            "primitives" : [
                {
                    "attributes" : {
                        "POSITION" : 12,
                        "NORMAL" : 13,
                        "TEXCOORD_0" : 14
                    },
                    "indices" : 15
                }
            ]
        }
    ],
    "accessors" : [
        {
            "bufferView" : 0,
            "componentType" : 5126,
            "count" : 2400,
            "max" : [
                1.081730842590332,
                0.19279398024082184,
                1.0471911430358887
            ],
            "min" : [
                -1.0632990598678589,
                -0.7903779745101929,
                -1.0270658731460571
            ],
            "type" : "VEC3"
        },
        {
            "bufferView" : 1,
            "componentType" : 5126,
            "count" : 2400,
            "type" : "VEC3"
        },
        {
            "bufferView" : 2,
            "componentType" : 5126,
            "count" : 2400,
            "type" : "VEC2"
        },
        {
            "bufferView" : 3,
            "componentType" : 5123,
            "count" : 11328,
            "type" : "SCALAR"
        },
        {
            "bufferView" : 4,
            "componentType" : 5126,
            "count" : 3814,
            "max" : [
                1.1284364461898804,
                0.2053290754556656,
                1.1284364461898804
            ],
            "min" : [
                -1.1284364461898804,
                -0.022659137845039368,
                -1.1284364461898804
            ],
            "type" : "VEC3"
        },
        {
            "bufferView" : 5,
            "componentType" : 5126,
            "count" : 3814,
            "type" : "VEC3"
        },
        {
            "bufferView" : 6,
            "componentType" : 5126,
            "count" : 3814,
            "type" : "VEC2"
        },
        {
            "bufferView" : 7,
            "componentType" : 5123,
            "count" : 8652,
            "type" : "SCALAR"
        },
        {
            "bufferView" : 8,
            "componentType" : 5126,
            "count" : 3168,
            "max" : [
                1.0741281509399414,
                0.2708495259284973,
                1.0741287469863892
            ],
            "min" : [
                -1.0741281509399414,
                -0.09115906059741974,
                -1.0741287469863892
            ],
            "type" : "VEC3"
        },
        {
            "bufferView" : 9,
            "componentType" : 5126,
            "count" : 3168,
            "type" : "VEC3"
        },
        {
            "bufferView" : 10,
            "componentType" : 5126,
            "count" : 3168,
            "type" : "VEC2"
        },
        {
            "bufferView" : 11,
            "componentType" : 5123,
            "count" : 10848,
            "type" : "SCALAR"
        },
        {
            "bufferView" : 12,
            "componentType" : 5126,
            "count" : 69120,
            "max" : [
                0.5842679738998413,
                0.5848036408424377,
                0.5842993259429932
            ],
            "min" : [
                -0.5842680335044861,
                -0.5848036408424377,
                -0.5842993259429932
            ],
            "type" : "VEC3"
        },
        {
            "bufferView" : 13,
            "componentType" : 5126,
            "count" : 69120,
            "type" : "VEC3"
        },
        {
            "bufferView" : 14,
            "componentType" : 5126,
            "count" : 69120,
            "type" : "VEC2"
        },
        {
            "bufferView" : 15,
            "componentType" : 5125,
            "count" : 103680,
            "type" : "SCALAR"
        },
        {
            "bufferView" : 16,
            "componentType" : 5126,
            "count" : 100,
            "max" : [
                4.166666666666667
            ],
            "min" : [
                0.041666666666666664
            ],
            "type" : "SCALAR"
        },
        {
            "bufferView" : 17,
            "componentType" : 5126,
            "count" : 100,
            "type" : "VEC3"
        },
        {
            "bufferView" : 18,
            "componentType" : 5126,
            "count" : 400,
            "max" : [
                16.666666666666668
            ],
            "min" : [
                0.041666666666666664
            ],
            "type" : "SCALAR"
        },
        {
            "bufferView" : 19,
            "componentType" : 5126,
            "count" : 400,
            "type" : "VEC3"
        },
        {
            "bufferView" : 20,
            "componentType" : 5126,
            "count" : 400,
            "type" : "VEC4"
        },
        {
            "bufferView" : 21,
            "componentType" : 5126,
            "count" : 400,
            "type" : "VEC3"
        },
        {
            "bufferView" : 22,
            "componentType" : 5126,
            "count" : 200,
            "max" : [
                8.333333333333334
            ],
            "min" : [
                0.041666666666666664
            ],
            "type" : "SCALAR"
        },
        {
            "bufferView" : 23,
            "componentType" : 5126,
            "count" : 200,
            "type" : "VEC4"
        },
        {
            "bufferView" : 24,
            "componentType" : 5126,
            "count" : 400,
            "type" : "VEC3"
        },
        {
            "bufferView" : 25,
            "componentType" : 5126,
            "count" : 400,
            "type" : "VEC4"
        },
        {
            "bufferView" : 26,
            "componentType" : 5126,
            "count" : 400,
            "type" : "VEC3"
        },
        {
            "bufferView" : 27,
            "componentType" : 5126,
            "count" : 400,
            "type" : "VEC4"
        }
    ],
    "bufferViews" : [
        {
            "buffer" : 0,
            "byteLength" : 28800,
            "byteOffset" : 0
        },
        {
            "buffer" : 0,
            "byteLength" : 28800,
            "byteOffset" : 28800
        },
        {
            "buffer" : 0,
            "byteLength" : 19200,
            "byteOffset" : 57600
        },
        {
            "buffer" : 0,
            "byteLength" : 22656,
            "byteOffset" : 76800
        },
        {
            "buffer" : 0,
            "byteLength" : 45768,
            "byteOffset" : 99456
        },
        {
            "buffer" : 0,
            "byteLength" : 45768,
            "byteOffset" : 145224
        },
        {
            "buffer" : 0,
            "byteLength" : 30512,
            "byteOffset" : 190992
        },
        {
            "buffer" : 0,
            "byteLength" : 17304,
            "byteOffset" : 221504
        },
        {
            "buffer" : 0,
            "byteLength" : 38016,
            "byteOffset" : 238808
        },
        {
            "buffer" : 0,
            "byteLength" : 38016,
            "byteOffset" : 276824
        },
        {
            "buffer" : 0,
            "byteLength" : 25344,
            "byteOffset" : 314840
        },
        {
            "buffer" : 0,
            "byteLength" : 21696,
            "byteOffset" : 340184
        },
        {
            "buffer" : 0,
            "byteLength" : 829440,
            "byteOffset" : 361880
        },
        {
            "buffer" : 0,
            "byteLength" : 829440,
            "byteOffset" : 1191320
        },
        {
            "buffer" : 0,
            "byteLength" : 552960,
            "byteOffset" : 2020760
        },
        {
            "buffer" : 0,
            "byteLength" : 414720,
            "byteOffset" : 2573720
        },
        {
            "buffer" : 0,
            "byteLength" : 400,
            "byteOffset" : 2988440
        },
        {
            "buffer" : 0,
            "byteLength" : 1200,
            "byteOffset" : 2988840
        },
        {
            "buffer" : 0,
            "byteLength" : 1600,
            "byteOffset" : 2990040
        },
        {
            "buffer" : 0,
            "byteLength" : 4800,
            "byteOffset" : 2991640
        },
        {
            "buffer" : 0,
            "byteLength" : 6400,
            "byteOffset" : 2996440
        },
        {
            "buffer" : 0,
            "byteLength" : 4800,
            "byteOffset" : 3002840
        },
        {
            "buffer" : 0,
            "byteLength" : 800,
            "byteOffset" : 3007640
        },
        {
            "buffer" : 0,
            "byteLength" : 3200,
            "byteOffset" : 3008440
        },
        {
            "buffer" : 0,
            "byteLength" : 4800,
            "byteOffset" : 3011640
        },
        {
            "buffer" : 0,
            "byteLength" : 6400,
            "byteOffset" : 3016440
        },
        {
            "buffer" : 0,
            "byteLength" : 4800,
            "byteOffset" : 3022840
        },
        {
            "buffer" : 0,
            "byteLength" : 6400,
            "byteOffset" : 3027640
        }
    ],
    "buffers" : [
        {
            "byteLength" : 3034040,
            "uri" : "data:application/octet-stream;base64,"
        }
    ]
}
